<svg width="96" height="70" viewBox="0 0 96 70" fill="none" xmlns="http://www.w3.org/2000/svg">
<path fill-rule="evenodd" clip-rule="evenodd" d="M36.2 28C36.0895 28 36 28.0895 36 28.2V41.8C36 41.9105 36.0895 42 36.2 42H37.8C37.9105 42 38 41.9105 38 41.8V36.2C38 36.0895 38.0895 36 38.2 36H43.8C43.9105 36 44 36.0895 44 36.2V41.8C44 41.9105 44.0895 42 44.2 42H45.8C45.9105 42 46 41.9105 46 41.8V28.2C46 28.0895 45.9105 28 45.8 28H36.2ZM44 30.2C44 30.0895 43.9105 30 43.8 30H38.2C38.0895 30 38 30.0895 38 30.2V33.8C38 33.9105 38.0895 34 38.2 34H43.8C43.9105 34 44 33.9105 44 33.8V30.2Z" fill="white"/>
</svg>
