<svg width="156" height="71" viewBox="0 0 156 71" fill="none" xmlns="http://www.w3.org/2000/svg">
<path fill-rule="evenodd" clip-rule="evenodd" d="M36 29.2C36 29.0895 36.0895 29 36.2 29H45.8C45.9105 29 46 29.0895 46 29.2V42.8C46 42.9105 45.9105 43 45.8 43H36.2C36.0895 43 36 42.9105 36 42.8V29.2ZM43.8 41C43.9105 41 44 40.9105 44 40.8V37.2C44 37.0895 43.9105 37 43.8 37H38.2C38.0895 37 38 37.0895 38 37.2V40.8C38 40.9105 38.0895 41 38.2 41H43.8ZM43.8 35C43.9105 35 44 34.9105 44 34.8V31.2C44 31.0895 43.9105 31 43.8 31H38.2C38.0895 31 38 31.0895 38 31.2V34.8C38 34.9105 38.0895 35 38.2 35H43.8Z" fill="white"/>
</svg>
