<svg width="45" height="26" viewBox="0 0 45 26" fill="none" xmlns="http://www.w3.org/2000/svg">
<rect width="45" height="26" rx="1" fill="white"/>
<path d="M15 10.2C15 10.0895 15.0895 10 15.2 10H16.8C16.9105 10 17 10.0895 17 10.2V15.8C17 15.9105 16.9105 16 16.8 16H15.2C15.0895 16 15 15.9105 15 15.8V10.2Z" fill="#252525"/>
<path d="M21 10.2C21 10.0895 21.0895 10 21.2 10H22.8C22.9105 10 23 10.0895 23 10.2V15.8C23 15.9105 22.9105 16 22.8 16H21.2C21.0895 16 21 15.9105 21 15.8V10.2Z" fill="#252525"/>
<path d="M27.2 10C27.0895 10 27 10.0895 27 10.2V15.8C27 15.9105 27.0895 16 27.2 16H28.8C28.9105 16 29 15.9105 29 15.8V10.2C29 10.0895 28.9105 10 28.8 10H27.2Z" fill="#252525"/>
</svg>
