<svg width="180" height="26" viewBox="0 0 180 26" fill="none" xmlns="http://www.w3.org/2000/svg">
<path d="M69 8.2C69 8.08954 69.0895 8 69.2 8H76.8C76.9105 8 77 8.08954 77 8.2V9.8C77 9.91046 76.9105 10 76.8 10H71.2C71.0895 10 71 10.0895 71 10.2V15.8C71 15.9105 71.0895 16 71.2 16H76.8C76.9105 16 77 16.0895 77 16.2V17.8C77 17.9105 76.9105 18 76.8 18H69.2C69.0895 18 69 17.9105 69 17.8V8.2Z" fill="white"/>
<path d="M80.8 10C80.9105 10 81 10.0895 81 10.2V17.8C81 17.9105 80.9105 18 80.8 18H79.2C79.0895 18 79 17.9105 79 17.8V10.2C79 10.0895 79.0895 10 79.2 10H80.8Z" fill="white"/>
<path d="M90.8 12C90.9105 12 91 12.0895 91 12.2V17.8C91 17.9105 90.9105 18 90.8 18H83.2C83.0895 18 83 17.9105 83 17.8V12.2C83 12.0895 83.0895 12 83.2 12H90.8ZM85 15.8C85 15.9105 85.0895 16 85.2 16H88.8C88.9105 16 89 15.9105 89 15.8V14.2C89 14.0895 88.9105 14 88.8 14H85.2C85.0895 14 85 14.0895 85 14.2V15.8Z" fill="white"/>
<path d="M98.8 16C98.9105 16 99 15.9105 99 15.8V12.2C99 12.0895 99.0895 12 99.2 12H100.8C100.91 12 101 12.0895 101 12.2V17.8C101 17.9105 100.91 18 100.8 18H93.2C93.0895 18 93 17.9105 93 17.8V12.2C93 12.0895 93.0895 12 93.2 12H94.8C94.9105 12 95 12.0895 95 12.2V15.8C95 15.9105 95.0895 16 95.2 16H98.8Z" fill="white"/>
<path d="M111 17.8C111 17.9105 110.91 18 110.8 18H103.2C103.09 18 103 17.9105 103 17.8V12.2C103 12.0895 103.09 12 103.2 12H108.8C108.91 12 109 11.9105 109 11.8V10.2C109 10.0895 109.09 10 109.2 10H110.8C110.91 10 111 10.0895 111 10.2V17.8ZM105.2 14C105.09 14 105 14.0895 105 14.2V15.8C105 15.9105 105.09 16 105.2 16H108.8C108.91 16 109 15.9105 109 15.8V14.2C109 14.0895 108.91 14 108.8 14H105.2Z" fill="white"/>
</svg>
