<svg width="82" height="26" viewBox="0 0 82 26" fill="none" xmlns="http://www.w3.org/2000/svg">
<path d="M22.8587 17.9C22.9368 17.9781 23.0634 17.9781 23.1416 17.9L27.1013 13.9402C27.1795 13.8621 27.1795 13.7354 27.1013 13.6573L25.97 12.5259C25.8919 12.4478 25.7652 12.4478 25.6871 12.5259L24.3918 13.8212C24.2659 13.9472 24.0504 13.858 24.0504 13.6798V8.24138C24.0504 8.13092 23.9609 8.04138 23.8504 8.04138H22.2504C22.14 8.04138 22.0504 8.13092 22.0504 8.24138V13.7804C22.0504 13.9586 21.835 14.0478 21.709 13.9218L20.3131 12.5259C20.235 12.4478 20.1084 12.4478 20.0303 12.5259L18.8989 13.6573C18.8208 13.7354 18.8208 13.8621 18.8989 13.9402L22.8587 17.9Z" fill="white"/>
<path d="M40.8 16C40.9105 16 41 15.9105 41 15.8V10H42.8C42.9105 10 43 10.0895 43 10.2V17.8C43 17.9105 42.9105 18 42.8 18H35.2C35.0895 18 35 17.9105 35 17.8V8.2C35 8.08954 35.0895 8 35.2 8H40.8C40.9105 8 41 8.08954 41 8.2V10H37.2C37.0895 10 37 10.0895 37 10.2V15.8C37 15.9105 37.0895 16 37.2 16H40.8Z" fill="white"/>
<path fill-rule="evenodd" clip-rule="evenodd" d="M52.8 12C52.9105 12 53 12.0895 53 12.2V17.8C53 17.9105 52.9105 18 52.8 18H45.2C45.0895 18 45 17.9105 45 17.8V12.2C45 12.0895 45.0895 12 45.2 12H52.8ZM47 15.8C47 15.9105 47.0895 16 47.2 16H50.8C50.9105 16 51 15.9105 51 15.8V14.2C51 14.0895 50.9105 14 50.8 14H47.2C47.0895 14 47 14.0895 47 14.2V15.8Z" fill="white"/>
<path d="M65 12.2C65 12.0895 64.9105 12 64.8 12H63.2C63.0895 12 63 12.0895 63 12.2V15.8C63 15.9105 62.9105 16 62.8 16H61.2C61.0895 16 61 15.9105 61 15.8V12.2C61 12.0895 60.9105 12 60.8 12H59.2C59.0895 12 59 12.0895 59 12.2V15.8C59 15.9105 58.9105 16 58.8 16H57.2C57.0895 16 57 15.9105 57 15.8V12.2C57 12.0895 56.9105 12 56.8 12H55.2C55.0895 12 55 12.0895 55 12.2V17.8C55 17.9105 55.0895 18 55.2 18H64.8C64.9105 18 65 17.9105 65 17.8V12.2Z" fill="white"/>
</svg>
