<svg width="45" height="70" viewBox="0 0 45 70" fill="none" xmlns="http://www.w3.org/2000/svg">
<path d="M22.2 28C22.0895 28 22 28.0895 22 28.2V41.8C22 41.9105 22.0895 42 22.2 42H23.8C23.9105 42 24 41.9105 24 41.8V28.2C24 28.0895 23.9105 28 23.8 28H22.2Z" fill="white"/>
<path d="M28.2 32C28.0895 32 28 32.0895 28 32.2V37.8C28 37.9105 28.0895 38 28.2 38H29.8C29.9105 38 30 37.9105 30 37.8V32.2C30 32.0895 29.9105 32 29.8 32H28.2Z" fill="white"/>
<path d="M16 32.2C16 32.0895 16.0895 32 16.2 32H17.8C17.9105 32 18 32.0895 18 32.2V37.8C18 37.9105 17.9105 38 17.8 38H16.2C16.0895 38 16 37.9105 16 37.8V32.2Z" fill="white"/>
</svg>
