<svg width="100" height="54" viewBox="0 0 100 54" fill="none" xmlns="http://www.w3.org/2000/svg">
<path d="M30.8 26C30.9105 26 31 25.9105 31 25.8V22.2C31 22.0895 31.0895 22 31.2 22H32.8C32.9105 22 33 22.0895 33 22.2V31.8C33 31.9105 32.9105 32 32.8 32H31.2C31.0895 32 31 31.9105 31 31.8V28.2C31 28.0895 30.9105 28 30.8 28H27.2C27.0895 28 27 28.0895 27 28.2V31.8C27 31.9105 26.9105 32 26.8 32H25.2C25.0895 32 25 31.9105 25 31.8V22.2C25 22.0895 25.0895 22 25.2 22H26.8C26.9105 22 27 22.0895 27 22.2V25.8C27 25.9105 27.0895 26 27.2 26H30.8Z" fill="white"/>
<path d="M37 26.2C37 26.0895 37.0895 26 37.2 26H42.8C42.9105 26 43 26.0895 43 26.2V31.8C43 31.9105 42.9105 32 42.8 32H35.2C35.0895 32 35 31.9105 35 31.8V28.2C35 28.0895 35.0895 28 35.2 28H37V29.8C37 29.9105 37.0895 30 37.2 30H40.8C40.9105 30 41 29.9105 41 29.8V28.2C41 28.0895 40.9105 28 40.8 28H37V26.2Z" fill="white"/>
<path d="M51 31.8C51 31.9105 50.9105 32 50.8 32H45.2C45.0895 32 45 31.9105 45 31.8V26.2C45 26.0895 45.0895 26 45.2 26H50.8C50.9105 26 51 26.0895 51 26.2V27.8C51 27.9105 50.9105 28 50.8 28H47.2C47.0895 28 47 28.0895 47 28.2V29.8C47 29.9105 47.0895 30 47.2 30H50.8C50.9105 30 51 30.0895 51 30.2V31.8Z" fill="white"/>
<path d="M58.8 26C58.9105 26 59 26.0895 59 26.2V27.8C59 27.9105 58.9105 28 58.8 28H57V26.2C57 26.0895 57.0895 26 57.2 26H58.8ZM55.2 30C55.0895 30 55 30.0895 55 30.2V31.8C55 31.9105 54.9105 32 54.8 32H53.2C53.0895 32 53 31.9105 53 31.8V24.2C53 24.0895 53.0895 24 53.2 24H54.8C54.9105 24 55 24.0895 55 24.2V27.8C55 27.9105 55.0895 28 55.2 28H57V30H55.2ZM59 31.8C59 31.9105 58.9105 32 58.8 32H57.2C57.0895 32 57 31.9105 57 31.8V30H58.8C58.9105 30 59 30.0895 59 30.2V31.8Z" fill="white"/>
<path d="M67 22.2C67 22.0895 67.0895 22 67.2 22H74.8C74.9105 22 75 22.0895 75 22.2V23.8C75 23.9105 74.9105 24 74.8 24H69.2C69.0895 24 69 24.0895 69 24.2V29.8C69 29.9105 69.0895 30 69.2 30H72.8C72.9105 30 73 29.9105 73 29.8V28.2C73 28.0895 72.9105 28 72.8 28H71.2C71.0895 28 71 27.9105 71 27.8V26.2C71 26.0895 71.0895 26 71.2 26H74.8C74.9105 26 75 26.0895 75 26.2V31.8C75 31.9105 74.9105 32 74.8 32H67.2C67.0895 32 67 31.9105 67 31.8V22.2Z" fill="white"/>
<path d="M62 30.2C62 30.0895 62.0895 30 62.2 30H63.8C63.9105 30 64 30.0895 64 30.2V31.8C64 31.9105 63.9105 32 63.8 32H62.2C62.0895 32 62 31.9105 62 31.8V30.2Z" fill="white"/>
</svg>
