<svg width="151" height="34" viewBox="0 0 151 34" fill="none" xmlns="http://www.w3.org/2000/svg">
<rect width="151" height="34" rx="2" fill="#252525"/>
<path d="M18 14.2C18 14.0895 17.9105 14 17.8 14H16.2C16.0895 14 16 14.0895 16 14.2V15.8C16 15.9105 15.9105 16 15.8 16H14.2C14.0895 16 14 16.0895 14 16.2V17.8C14 17.9105 14.0895 18 14.2 18H15.8C15.9105 18 16 18.0895 16 18.2V19.8C16 19.9105 16.0895 20 16.2 20H17.8C17.9105 20 18 19.9105 18 19.8V18.2C18 18.0895 18.0895 18 18.2 18H19.8C19.9105 18 20 17.9105 20 17.8V16.2C20 16.0895 19.9105 16 19.8 16H18.2C18.0895 16 18 15.9105 18 15.8V14.2Z" fill="white"/>
<path d="M25 16.2C25 16.0895 24.9105 16 24.8 16H23.2C23.0895 16 23 16.0895 23 16.2V17.8C23 17.9105 23.0895 18 23.2 18H24.8C24.9105 18 25 17.9105 25 17.8V16.2Z" fill="white"/>
<path d="M27 16.2C27 16.0895 27.0895 16 27.2 16H28.8C28.9105 16 29 16.0895 29 16.2V17.8C29 17.9105 28.9105 18 28.8 18H27.2C27.0895 18 27 17.9105 27 17.8V16.2Z" fill="white"/>
<path fill-rule="evenodd" clip-rule="evenodd" d="M10 10.2C10 10.0895 10.0895 10 10.2 10H32.8C32.9105 10 33 10.0895 33 10.2V23.8C33 23.9105 32.9105 24 32.8 24H10.2C10.0895 24 10 23.9105 10 23.8V10.2ZM12 12.2C12 12.0895 12.0895 12 12.2 12H30.8C30.9105 12 31 12.0895 31 12.2V21.8C31 21.9105 30.9105 22 30.8 22H12.2C12.0895 22 12 21.9105 12 21.8V12.2Z" fill="white"/>
<path opacity="0.4" d="M49 18V14H51V24H49V20H45V24H43V14H45V18H49ZM61 18V24H53V18H61ZM55 22H59V20H55V22ZM71 22V18H73V24H63V18H65V22H67V18H69V22H71ZM85 24H81V16H83V18H85V20H83V22H85V24ZM95 18V24H87V18H95ZM89 22H93V20H89V22ZM103 18H111V24H105V26H103V18ZM109 22V20H105V22H109ZM115 16V24H113V16H115ZM119 18H125V24H117V20H119V22H123V20H119V18ZM133 22V18H135V26H133V24H127V18H129V22H133ZM137 24V22H139V24H137Z" fill="white"/>
</svg>
