<svg width="45" height="26" viewBox="0 0 45 26" fill="none" xmlns="http://www.w3.org/2000/svg">
<rect width="45" height="26" rx="2" fill="#0F0F0F"/>
<rect opacity="0.4" x="20.5" y="6" width="4" height="2" rx="0.5" fill="white"/>
<rect x="20.5" y="11" width="4" height="4" rx="0.5" fill="white"/>
<path d="M26.5 6.20711C26.5 5.76165 27.0386 5.53857 27.3536 5.85355L29.6464 8.14645C29.9614 8.46143 29.7383 9 29.2929 9H27C26.7239 9 26.5 8.77614 26.5 8.5V6.20711Z" fill="white"/>
<path d="M17.6464 5.85355C17.9614 5.53857 18.5 5.76165 18.5 6.20711V8.5C18.5 8.77614 18.2761 9 18 9H15.7071C15.2617 9 15.0386 8.46143 15.3536 8.14645L17.6464 5.85355Z" fill="white"/>
<path d="M15.3536 17.8536C15.0386 17.5386 15.2617 17 15.7071 17H18C18.2761 17 18.5 17.2239 18.5 17.5V19.7929C18.5 20.2383 17.9614 20.4614 17.6464 20.1464L15.3536 17.8536Z" fill="white"/>
<path d="M26.5 17.5C26.5 17.2239 26.7239 17 27 17H29.2929C29.7383 17 29.9614 17.5386 29.6464 17.8536L27.3536 20.1464C27.0386 20.4614 26.5 20.2383 26.5 19.7929V17.5Z" fill="white"/>
<rect opacity="0.4" x="20.5" y="18" width="4" height="2" rx="0.5" fill="white"/>
<rect opacity="0.4" x="15.5" y="11" width="2" height="4" rx="0.5" fill="white"/>
<rect opacity="0.4" x="27.5" y="11" width="2" height="4" rx="0.5" fill="white"/>
</svg>
