<svg width="46" height="26" viewBox="0 0 46 26" fill="none" xmlns="http://www.w3.org/2000/svg">
<rect width="46" height="26" rx="2" fill="#252525"/>
<rect opacity="0.4" x="21" y="6" width="4" height="2" rx="0.5" fill="white"/>
<rect x="21" y="11" width="4" height="4" rx="0.5" fill="white"/>
<path d="M27 6.20711C27 5.76165 27.5386 5.53857 27.8536 5.85355L30.1464 8.14645C30.4614 8.46143 30.2383 9 29.7929 9H27.5C27.2239 9 27 8.77614 27 8.5V6.20711Z" fill="white"/>
<path d="M18.1464 5.85355C18.4614 5.53857 19 5.76165 19 6.20711V8.5C19 8.77614 18.7761 9 18.5 9H16.2071C15.7617 9 15.5386 8.46143 15.8536 8.14645L18.1464 5.85355Z" fill="white"/>
<path d="M15.8536 17.8536C15.5386 17.5386 15.7617 17 16.2071 17H18.5C18.7761 17 19 17.2239 19 17.5V19.7929C19 20.2383 18.4614 20.4614 18.1464 20.1464L15.8536 17.8536Z" fill="white"/>
<path d="M27 17.5C27 17.2239 27.2239 17 27.5 17H29.7929C30.2383 17 30.4614 17.5386 30.1464 17.8536L27.8536 20.1464C27.5386 20.4614 27 20.2383 27 19.7929V17.5Z" fill="white"/>
<rect opacity="0.4" x="21" y="18" width="4" height="2" rx="0.5" fill="white"/>
<rect opacity="0.4" x="16" y="11" width="2" height="4" rx="0.5" fill="white"/>
<rect opacity="0.4" x="28" y="11" width="2" height="4" rx="0.5" fill="white"/>
</svg>
