<svg width="100" height="100" viewBox="0 0 100 100" fill="none" xmlns="http://www.w3.org/2000/svg">
<rect width="100" height="100" rx="2" fill="#252525"/>
<path fill-rule="evenodd" clip-rule="evenodd" d="M78.5597 46.9431C78.7885 46.986 79 46.8105 79 46.5777V34.0128C79 26.826 73.174 21 65.9872 21C58.8004 21 52.9744 26.826 52.9744 34.0128C52.9744 41.1996 58.8004 47.0256 65.9872 47.0256C68.5914 47.0256 71.0169 46.2607 73.0513 44.9432V45.6017C73.0513 45.7806 73.1787 45.9342 73.3546 45.9671L78.5597 46.9431ZM73.0513 34.0128C73.0513 37.9142 69.8886 41.0769 65.9872 41.0769C62.0858 41.0769 58.9231 37.9142 58.9231 34.0128C58.9231 30.1114 62.0858 26.9487 65.9872 26.9487C69.8886 26.9487 73.0513 30.1114 73.0513 34.0128Z" fill="white"/>
<path d="M79 54.3983C79 54.2194 78.8726 54.0659 78.6967 54.0329L73.4916 53.0569C73.2628 53.014 73.0513 53.1895 73.0513 53.4223V65.9872C73.0513 69.8886 69.8886 73.0513 65.9872 73.0513C62.0858 73.0513 58.9231 69.8886 58.9231 65.9872V54.3983C58.9231 54.2194 58.7957 54.0659 58.6198 54.0329L53.4147 53.0569C53.1859 53.014 52.9744 53.1895 52.9744 53.4223V65.9872C52.9744 73.174 58.8004 79 65.9872 79C73.174 79 79 73.174 79 65.9872V54.3983Z" fill="white"/>
<path fill-rule="evenodd" clip-rule="evenodd" d="M41.0769 21.448C41.0769 21.2152 41.2884 21.0397 41.5172 21.0826L46.7224 22.0585C46.8982 22.0915 47.0256 22.245 47.0256 22.4239V23.9744C47.0256 28.0153 45.1837 31.6261 42.2936 34.0128C45.1837 36.3996 47.0256 40.0103 47.0256 44.0513V46.5777C47.0256 46.8105 46.8141 46.986 46.5853 46.9431L41.3802 45.9671C41.2044 45.9342 41.0769 45.7806 41.0769 45.6017V44.0513C41.0769 40.1499 37.9142 36.9872 34.0128 36.9872C30.1114 36.9872 26.9487 40.1499 26.9487 44.0513V55.0568C28.9831 53.7393 31.4086 52.9744 34.0128 52.9744C41.1996 52.9744 47.0256 58.8004 47.0256 65.9872C47.0256 73.174 41.1996 79 34.0128 79C26.826 79 21 73.174 21 65.9872V21.4473C21 21.2147 21.2111 21.0393 21.4398 21.0818L26.6449 22.0497C26.821 22.0825 26.9487 22.2361 26.9487 22.4153V33.1209C28.9831 31.8034 31.4086 31.0385 34.0128 31.0385C37.9142 31.0385 41.0769 27.8758 41.0769 23.9744V21.448ZM41.0769 65.9872C41.0769 69.8886 37.9142 73.0513 34.0128 73.0513C30.1114 73.0513 26.9487 69.8886 26.9487 65.9872C26.9487 62.0858 30.1114 58.9231 34.0128 58.9231C37.9142 58.9231 41.0769 62.0858 41.0769 65.9872Z" fill="white"/>
</svg>
