<svg width="105" height="26" viewBox="0 0 105 26" fill="none" xmlns="http://www.w3.org/2000/svg">
<rect width="105" height="26" rx="1" fill="#323232"/>
<g opacity="0.4">
<path d="M15 8H23V16H17V18H15V8ZM21 14V10H17V14H21Z" fill="white"/>
<path d="M27 10V12H25V10H27ZM27 14V18H25V14H27Z" fill="white"/>
<path d="M29 12H31V14H29V12ZM35 12V14H33V12H35ZM33 16H31V14H33V16ZM29 18V16H31V18H29ZM35 18H33V16H35V18Z" fill="white"/>
<path d="M39 10V18H37V10H39Z" fill="white"/>
<path d="M41 12H49V14H47V16H49V18H43V16H45V14H43V16H41V12Z" fill="white"/>
<path d="M53 10V18H51V10H53Z" fill="white"/>
<path d="M57 12H63V18H55V14H57V16H61V14H57V12Z" fill="white"/>
<path d="M69 18H65V10H67V12H69V14H67V16H69V18Z" fill="white"/>
<path d="M71 12H79V14H77V16H79V18H73V16H75V14H73V16H71V12Z" fill="white"/>
<path d="M89 18H81V12H87V10H89V18ZM83 14V16H87V14H83Z" fill="white"/>
</g>
</svg>
