<svg width="120" height="26" viewBox="0 0 120 26" fill="none" xmlns="http://www.w3.org/2000/svg">
<rect width="120" height="26" rx="2" fill="#0F0F0F"/>
<g opacity="0.4">
<path d="M47 8.2C47 8.08954 47.0895 8 47.2 8H54.8C54.9105 8 55 8.08954 55 8.2V15.8C55 15.9105 54.9105 16 54.8 16H49.2C49.0895 16 49 16.0895 49 16.2V17.8C49 17.9105 48.9105 18 48.8 18H47.2C47.0895 18 47 17.9105 47 17.8V8.2ZM52.8 14C52.9105 14 53 13.9105 53 13.8V10.2C53 10.0895 52.9105 10 52.8 10H49.2C49.0895 10 49 10.0895 49 10.2V13.8C49 13.9105 49.0895 14 49.2 14H52.8Z" fill="white"/>
<path d="M62.8 12C62.9105 12 63 12.0895 63 12.2V13.8C63 13.9105 62.9105 14 62.8 14H61V12.2C61 12.0895 61.0895 12 61.2 12H62.8ZM59.2 16C59.0895 16 59 16.0895 59 16.2V17.8C59 17.9105 58.9105 18 58.8 18H57.2C57.0895 18 57 17.9105 57 17.8V10.2C57 10.0895 57.0895 10 57.2 10H58.8C58.9105 10 59 10.0895 59 10.2V13.8C59 13.9105 59.0895 14 59.2 14H61V16H59.2ZM63 17.8C63 17.9105 62.9105 18 62.8 18H61.2C61.0895 18 61 17.9105 61 17.8V16H62.8C62.9105 16 63 16.0895 63 16.2V17.8Z" fill="white"/>
<path d="M73 17.8C73 17.9105 72.9105 18 72.8 18H65.2C65.0895 18 65 17.9105 65 17.8V12.2C65 12.0895 65.0895 12 65.2 12H70.8C70.9105 12 71 11.9105 71 11.8V10.2C71 10.0895 71.0895 10 71.2 10H72.8C72.9105 10 73 10.0895 73 10.2V17.8ZM67.2 14C67.0895 14 67 14.0895 67 14.2V15.8C67 15.9105 67.0895 16 67.2 16H70.8C70.9105 16 71 15.9105 71 15.8V14.2C71 14.0895 70.9105 14 70.8 14H67.2Z" fill="white"/>
</g>
</svg>
