<svg width="45" height="160" viewBox="0 0 45 160" fill="none" xmlns="http://www.w3.org/2000/svg">
<path d="M27 74.2C27 74.0895 26.9105 74 26.8 74H17.2C17.0895 74 17 74.0895 17 74.2V87.8C17 87.9105 17.0895 88 17.2 88H18.8C18.9105 88 19 87.9105 19 87.8V76.2C19 76.0895 19.0895 76 19.2 76H24.8C24.9105 76 25 76.0895 25 76.2V79.8C25 79.9105 24.9105 80 24.8 80H22.2C22.0895 80 22 80.0895 22 80.2V81.8C22 81.9105 22.0895 82 22.2 82H24.8C24.9105 82 25 82.0895 25 82.2V87.8C25 87.9105 25.0895 88 25.2 88H26.8C26.9105 88 27 87.9105 27 87.8V74.2Z" fill="white"/>
</svg>
