<svg width="45" height="26" viewBox="0 0 45 26" fill="none" xmlns="http://www.w3.org/2000/svg">
<path d="M29.8 7C29.9105 7 30 7.08954 30 7.2V18.8C30 18.9105 29.9105 19 29.8 19H14.2C14.0895 19 14 18.9105 14 18.8V7.2C14 7.08954 14.0895 7 14.2 7H17.8C17.9105 7 18 7.08954 18 7.2V8.8C18 8.91046 17.9105 9 17.8 9H16.2C16.0895 9 16 9.08954 16 9.2V16.8C16 16.9105 16.0895 17 16.2 17H27.8C27.9105 17 28 16.9105 28 16.8V9.2C28 9.08954 27.9105 9 27.8 9H23.2C23.0895 9 23 9.08954 23 9.2V11.5171C23 11.6953 23.2154 11.7845 23.3414 11.6585L23.9798 11.0202C24.0579 10.9421 24.1845 10.9421 24.2626 11.0202L25.394 12.1515C25.4721 12.2297 25.4721 12.3563 25.394 12.4344L22.1413 15.6871C22.0632 15.7652 21.9366 15.7652 21.8585 15.6871L18.6058 12.4344C18.5277 12.3563 18.5277 12.2297 18.6058 12.1515L19.7371 11.0202C19.8153 10.9421 19.9419 10.9421 20.02 11.0202L20.6586 11.6588C20.7846 11.7848 21 11.6955 21 11.5173V7.2C21 7.08954 21.0895 7 21.2 7H29.8Z" fill="white"/>
</svg>
