<svg width="45" height="26" viewBox="0 0 45 26" fill="none" xmlns="http://www.w3.org/2000/svg">
<path d="M15.2 19C15.0895 19 15 18.9105 15 18.8V7.2C15 7.08954 15.0895 7 15.2 7H30.8C30.9105 7 31 7.08954 31 7.2V18.8C31 18.9105 30.9105 19 30.8 19H27.2C27.0895 19 27 18.9105 27 18.8V17.2C27 17.0895 27.0895 17 27.2 17H28.8C28.9105 17 29 16.9105 29 16.8V9.2C29 9.08954 28.9105 9 28.8 9H17.2C17.0895 9 17 9.08954 17 9.2V16.8C17 16.9105 17.0895 17 17.2 17H21.8C21.9105 17 22 16.9105 22 16.8V14.4829C22 14.3047 21.7846 14.2155 21.6586 14.3415L21.0202 14.9798C20.9421 15.0579 20.8155 15.0579 20.7374 14.9798L19.606 13.8485C19.5279 13.7703 19.5279 13.6437 19.606 13.5656L22.8587 10.3129C22.9368 10.2348 23.0634 10.2348 23.1415 10.3129L26.3942 13.5656C26.4723 13.6437 26.4723 13.7703 26.3942 13.8485L25.2629 14.9798C25.1847 15.0579 25.0581 15.0579 24.98 14.9798L24.3414 14.3412C24.2154 14.2152 24 14.3045 24 14.4827V18.8C24 18.9105 23.9105 19 23.8 19H15.2Z" fill="white"/>
</svg>
