<svg width="45" height="26" viewBox="0 0 45 26" fill="none" xmlns="http://www.w3.org/2000/svg">
<rect width="45" height="26" rx="2" fill="white" fill-opacity="0.06"/>
<path d="M17.6716 14.6213C17.6716 15.0668 17.133 15.2899 16.818 14.9749L15.1967 13.3536C15.0014 13.1583 15.0014 12.8417 15.1967 12.6464L16.818 11.0251C17.133 10.7101 17.6716 10.9332 17.6716 11.3787V14.6213Z" fill="#F00101"/>
<rect opacity="0.4" x="20.5" y="12" width="4" height="2" rx="0.5" fill="white"/>
<path d="M27.3284 11.3787C27.3284 10.9332 27.867 10.7101 28.182 11.0251L29.8033 12.6464C29.9986 12.8417 29.9986 13.1583 29.8033 13.3536L28.182 14.9749C27.867 15.2899 27.3284 15.0668 27.3284 14.6213V11.3787Z" fill="#FF0000"/>
</svg>
