<svg width="96" height="26" viewBox="0 0 96 26" fill="none" xmlns="http://www.w3.org/2000/svg">
<g opacity="0.4">
<path d="M37 8.2C37 8.08954 37.0895 8 37.2 8H44.8C44.9105 8 45 8.08954 45 8.2V9.8C45 9.91046 44.9105 10 44.8 10H39.2C39.0895 10 39 10.0895 39 10.2V11.8C39 11.9105 39.0895 12 39.2 12H44.8C44.9105 12 45 12.0895 45 12.2V17.8C45 17.9105 44.9105 18 44.8 18H37.2C37.0895 18 37 17.9105 37 17.8V16.2C37 16.0895 37.0895 16 37.2 16H42.8C42.9105 16 43 15.9105 43 15.8V14.2C43 14.0895 42.9105 14 42.8 14H37.2C37.0895 14 37 13.9105 37 13.8V8.2Z" fill="white"/>
<path d="M53 17.8C53 17.9105 52.9105 18 52.8 18H47.2C47.0895 18 47 17.9105 47 17.8V12.2C47 12.0895 47.0895 12 47.2 12H52.8C52.9105 12 53 12.0895 53 12.2V13.8C53 13.9105 52.9105 14 52.8 14H49.2C49.0895 14 49 14.0895 49 14.2V15.8C49 15.9105 49.0895 16 49.2 16H52.8C52.9105 16 53 16.0895 53 16.2V17.8Z" fill="white"/>
<path d="M59 17.8C59 17.9105 58.9105 18 58.8 18H55.2C55.0895 18 55 17.9105 55 17.8V10.2C55 10.0895 55.0895 10 55.2 10H56.8C56.9105 10 57 10.0895 57 10.2V11.8C57 11.9105 57.0895 12 57.2 12H58.8C58.9105 12 59 12.0895 59 12.2V13.8C59 13.9105 58.9105 14 58.8 14H57.2C57.0895 14 57 14.0895 57 14.2V15.8C57 15.9105 57.0895 16 57.2 16H58.8C58.9105 16 59 16.0895 59 16.2V17.8Z" fill="white"/>
</g>
</svg>
