<svg width="45" height="26" viewBox="0 0 45 26" fill="none" xmlns="http://www.w3.org/2000/svg">
<path d="M16 10.2C16 10.0895 16.0895 10 16.2 10H17.8C17.9105 10 18 10.0895 18 10.2V15.8C18 15.9105 17.9105 16 17.8 16H16.2C16.0895 16 16 15.9105 16 15.8V10.2Z" fill="white"/>
<path d="M22 10.2C22 10.0895 22.0895 10 22.2 10H23.8C23.9105 10 24 10.0895 24 10.2V15.8C24 15.9105 23.9105 16 23.8 16H22.2C22.0895 16 22 15.9105 22 15.8V10.2Z" fill="white"/>
<path d="M28.2 10C28.0895 10 28 10.0895 28 10.2V15.8C28 15.9105 28.0895 16 28.2 16H29.8C29.9105 16 30 15.9105 30 15.8V10.2C30 10.0895 29.9105 10 29.8 10H28.2Z" fill="white"/>
</svg>
