<svg width="96" height="26" viewBox="0 0 96 26" fill="none" xmlns="http://www.w3.org/2000/svg">
<g opacity="0.4">
<path d="M36 8.2C36 8.08954 36.0895 8 36.2 8H43.8C43.9105 8 44 8.08954 44 8.2V9.8C44 9.91046 43.9105 10 43.8 10H38.2C38.0895 10 38 10.0895 38 10.2V11.8C38 11.9105 38.0895 12 38.2 12H43.8C43.9105 12 44 12.0895 44 12.2V17.8C44 17.9105 43.9105 18 43.8 18H36.2C36.0895 18 36 17.9105 36 17.8V16.2C36 16.0895 36.0895 16 36.2 16H41.8C41.9105 16 42 15.9105 42 15.8V14.2C42 14.0895 41.9105 14 41.8 14H36.2C36.0895 14 36 13.9105 36 13.8V8.2Z" fill="white"/>
<path d="M50 17.8C50 17.9105 49.9105 18 49.8 18H46.2C46.0895 18 46 17.9105 46 17.8V10.2C46 10.0895 46.0895 10 46.2 10H47.8C47.9105 10 48 10.0895 48 10.2V11.8C48 11.9105 48.0895 12 48.2 12H49.8C49.9105 12 50 12.0895 50 12.2V13.8C50 13.9105 49.9105 14 49.8 14H48.2C48.0895 14 48 14.0895 48 14.2V15.8C48 15.9105 48.0895 16 48.2 16H49.8C49.9105 16 50 16.0895 50 16.2V17.8Z" fill="white"/>
<path d="M54 12.2C54 12.0895 54.0895 12 54.2 12H59.8C59.9105 12 60 12.0895 60 12.2V17.8C60 17.9105 59.9105 18 59.8 18H52.2C52.0895 18 52 17.9105 52 17.8V14.2C52 14.0895 52.0895 14 52.2 14H54V15.8C54 15.9105 54.0895 16 54.2 16H57.8C57.9105 16 58 15.9105 58 15.8V14.2C58 14.0895 57.9105 14 57.8 14H54V12.2Z" fill="white"/>
</g>
</svg>
