<svg width="45" height="26" viewBox="0 0 45 26" fill="none" xmlns="http://www.w3.org/2000/svg">
<rect width="45" height="26" rx="2" fill="white" fill-opacity="0.06"/>
<path d="M15.1108 11.2322C15.3061 11.037 15.6226 11.037 15.8179 11.2322L16.525 11.9393C16.7203 12.1346 16.7203 12.4512 16.525 12.6464L15.4644 13.7071L14.4037 14.7677C14.2084 14.963 13.8919 14.963 13.6966 14.7677L12.9895 14.0606C12.7942 13.8654 12.7942 13.5488 12.9895 13.3535L14.0501 12.2929L15.1108 11.2322Z" fill="white"/>
<path opacity="0.4" d="M22.3535 11.2322C22.5487 11.037 22.8653 11.037 23.0606 11.2322L23.7677 11.9393C23.963 12.1346 23.963 12.4512 23.7677 12.6464L22.707 13.7071L21.6464 14.7677C21.4511 14.963 21.1345 14.963 20.9393 14.7677L20.2322 14.0606C20.0369 13.8654 20.0369 13.5488 20.2322 13.3535L21.2928 12.2929L22.3535 11.2322Z" fill="white"/>
<path opacity="0.4" d="M29.5962 11.2322C29.7914 11.037 30.108 11.037 30.3033 11.2322L31.0104 11.9393C31.2056 12.1346 31.2056 12.4512 31.0104 12.6464L29.9497 13.7071L28.889 14.7677C28.6938 14.963 28.3772 14.963 28.1819 14.7677L27.4748 14.0606C27.2796 13.8654 27.2796 13.5488 27.4748 13.3535L28.5355 12.2929L29.5962 11.2322Z" fill="white"/>
</svg>
