<svg width="83" height="26" viewBox="0 0 83 26" fill="none" xmlns="http://www.w3.org/2000/svg">
<path d="M30.1411 8.10008C30.063 8.02198 29.9363 8.02198 29.8582 8.10008L25.8984 12.0599C25.8203 12.138 25.8203 12.2646 25.8984 12.3427L27.0298 13.4741C27.1079 13.5522 27.2345 13.5522 27.3126 13.4741L28.6079 12.1788C28.7339 12.0528 28.9493 12.142 28.9493 12.3202V17.7587C28.9493 17.8691 29.0389 17.9587 29.1493 17.9587H30.7493C30.8598 17.9587 30.9493 17.8691 30.9493 17.7587V12.2196C30.9493 12.0415 31.1648 11.9522 31.2908 12.0782L32.6866 13.4741C32.7648 13.5522 32.8914 13.5522 32.9695 13.4741L34.1009 12.3427C34.179 12.2646 34.179 12.138 34.1009 12.0599L30.1411 8.10008Z" fill="white"/>
<path d="M47.8 16C47.9105 16 48 15.9105 48 15.8V8.2C48 8.08954 48.0895 8 48.2 8H49.8C49.9105 8 50 8.08954 50 8.2V17.8C50 17.9105 49.9105 18 49.8 18H42.2C42.0895 18 42 17.9105 42 17.8V8.2C42 8.08954 42.0895 8 42.2 8H43.8C43.9105 8 44 8.08954 44 8.2V15.8C44 15.9105 44.0895 16 44.2 16H47.8Z" fill="white"/>
<path d="M52 12.2C52 12.0895 52.0895 12 52.2 12H59.8C59.9105 12 60 12.0895 60 12.2V17.8C60 17.9105 59.9105 18 59.8 18H54.2C54.0895 18 54 18.0895 54 18.2V19.8C54 19.9105 53.9105 20 53.8 20H52.2C52.0895 20 52 19.9105 52 19.8V12.2ZM57.8 16C57.9105 16 58 15.9105 58 15.8V14.2C58 14.0895 57.9105 14 57.8 14H54.2C54.0895 14 54 14.0895 54 14.2V15.8C54 15.9105 54.0895 16 54.2 16H57.8Z" fill="white"/>
</svg>
